<?xml version="1.0" encoding="UTF-8"?>
<svg id="Capa_1" xmlns="http://www.w3.org/2000/svg" version="1.1" viewBox="0 0 576 512">
  <!-- Generator: Adobe Illustrator 29.0.0, SVG Export Plug-In . SVG Version: 2.1.0 Build 186)  -->
  <defs>
    <style>
      .st0 {
        fill: #fff;
      }
    </style>
  </defs>
  <path class="st0" d="M0,24C0,10.7,10.7,0,24,0h45.5c22,0,41.5,12.8,50.6,32h411c26.3,0,45.5,25,38.6,50.4l-41,152.3c-8.5,31.4-37,53.3-69.5,53.3H170.7l5.4,28.5c2.2,11.3,12.1,19.5,23.6,19.5h288.3c13.3,0,24,10.7,24,24s-10.7,24-24,24H199.7c-34.6,0-64.3-24.6-70.7-58.5L77.4,54.5c-.7-3.8-4-6.5-7.9-6.5H24C10.7,48,0,37.3,0,24ZM128,464c0-26.5,21.5-48,48-48s48,21.5,48,48-21.5,48-48,48-48-21.5-48-48h0ZM464,416c26.5,0,48,21.5,48,48s-21.5,48-48,48h0c-26.5,0-48-21.5-48-48s21.5-48,48-48Z"/>
</svg>