<?xml version="1.0" encoding="UTF-8"?>
<svg id="Capa_1" xmlns="http://www.w3.org/2000/svg" version="1.1" viewBox="0 0 448 512">
  <!-- Generator: Adobe Illustrator 29.0.0, SVG Export Plug-In . SVG Version: 2.1.0 Build 186)  -->
  <defs>
    <style>
      .st0 {
        fill: #8c6fca;
      }
    </style>
  </defs>
  <path class="st0" d="M224.1,141c-63.6,0-114.9,51.3-114.9,114.9s51.3,114.9,114.9,114.9,114.9-51.3,114.9-114.9-51.3-114.9-114.9-114.9ZM224.1,330.6c-41.1,0-74.7-33.5-74.7-74.7s33.5-74.7,74.7-74.7,74.7,33.5,74.7,74.7-33.6,74.7-74.7,74.7h0ZM370.5,136.3c0,14.9-12,26.8-26.8,26.8s-26.8-12-26.8-26.8,12-26.8,26.8-26.8,26.8,12,26.8,26.8ZM446.6,163.5c-1.7-35.9-9.9-67.7-36.2-93.9-26.2-26.2-58-34.4-93.9-36.2-37-2.1-147.9-2.1-184.9,0-35.8,1.7-67.6,9.9-93.9,36.1S3.3,127.5,1.5,163.4c-2.1,37-2.1,147.9,0,184.9,1.7,35.9,9.9,67.7,36.2,93.9,26.3,26.2,58,34.4,93.9,36.2,37,2.1,147.9,2.1,184.9,0,35.9-1.7,67.7-9.9,93.9-36.2,26.2-26.2,34.4-58,36.2-93.9,2.1-37,2.1-147.8,0-184.8h0ZM398.8,388c-7.8,19.6-22.9,34.7-42.6,42.6-29.5,11.7-99.5,9-132.1,9s-102.7,2.6-132.1-9c-19.6-7.8-34.7-22.9-42.6-42.6-11.7-29.5-9-99.5-9-132.1s-2.6-102.7,9-132.1c7.8-19.6,22.9-34.7,42.6-42.6,29.5-11.7,99.5-9,132.1-9s102.7-2.6,132.1,9c19.6,7.8,34.7,22.9,42.6,42.6,11.7,29.5,9,99.5,9,132.1s2.7,102.7-9,132.1Z"/>
</svg>